Simulation
nRows=47
nColumns=15
endheader
time  TH_x TH_y TH_z SC_y  SC_z  SC_x  AC_y  AC_z  AC_x  GH_y  GH_z  GH_yy  EL_x  PS_y
0.0  0.000000  0.000000  0.000000  -34.71589630532809  1.6656281120406622  1.7522771732740545  54.85397543670715  7.953493000080829  -7.1500918346205635  8.625924022021119  4.429907774375627  9.188243482107557  22.819445853867542  0.000000
0.011899999999999999  0.000000  0.000000  0.000000  -34.83251039173058  1.6255969374382553  1.764548341958552  54.76200182738551  7.983226285419951  -7.233485903279502  7.504946725166783  4.4301585223088  10.354937700006772  22.712339494876492  0.000000
0.023799999999999998  0.000000  0.000000  0.000000  -34.79428303040866  1.719915278337333  1.777091067727385  54.69723294682212  7.98248708936451  -7.2593384848173725  6.100554969618587  4.3559298941187  11.997236445726017  22.65823528129863  0.000000
0.035699999999999996  0.000000  0.000000  0.000000  -34.79497924919939  1.8251160228340502  1.7984423648702155  54.64447975880682  7.963031154864333  -7.239184837947061  4.447359720436675  4.311074389767136  13.967237665080818  22.636285533353103  0.000000
0.047599999999999996  0.000000  0.000000  0.000000  -34.81583357652443  1.9233045831288347  1.817821509572363  54.602885318128116  7.930110270452481  -7.196315443650893  2.8059286361592  4.3006591356462875  15.925105377331498  22.6233652297765  0.000000
0.0595  0.000000  0.000000  0.000000  -34.85667290576281  2.012213294755143  1.8285092325041554  54.57664803590448  7.886775597577649  -7.139198693971814  1.3077096550697773  4.334114887471254  17.739532211718114  22.6174277570066  0.000000
0.07139999999999999  0.000000  0.000000  0.000000  -34.900652223803945  2.090738776952621  1.8317565240470628  54.548095849115576  7.836125087498554  -7.076130178129548  -0.009814887417893466  4.404663347754606  19.352565318840817  22.628624869341117  0.000000
0.0833  0.000000  0.000000  0.000000  -34.94388440793576  2.1567717725724096  1.8291279989814508  54.52356451367458  7.7761071092177545  -7.016238343959848  -1.0980453815606872  4.516053311939869  20.706104920464746  22.65371543223975  0.000000
0.09519999999999999  0.000000  0.000000  0.000000  -34.98187296761219  2.210516260117837  1.8267283534351133  54.49958608369281  7.704557123703732  -6.965344790068708  -1.9542206673731988  4.667095811205925  21.788582019642437  22.694979072297954  0.000000
0.10709999999999999  0.000000  0.000000  0.000000  -35.01362691214141  2.253887396227532  1.8251463990597252  54.47542397237737  7.621833863229638  -6.923370799237844  -2.6040717464706518  4.858322697884712  22.61881418710813  22.751105081001935  0.000000
0.119  0.000000  0.000000  0.000000  -35.037262830357164  2.2885324931577453  1.8233477223500638  54.45206640353569  7.530904339848152  -6.890344414724862  -3.063793734434462  5.0898128724220255  23.20831449712043  22.821049754145125  0.000000
0.1309  0.000000  0.000000  0.000000  -35.05466119353579  2.3160490084118184  1.8217055636545214  54.42761263718285  7.43381274071019  -6.8643869526692765  -3.381700635024657  5.362140129551289  23.603221717335163  22.904133553751592  0.000000
0.14279999999999998  0.000000  0.000000  0.000000  -35.06471087975955  2.3375787712014513  1.820214252053477  54.40390399150692  7.332886008962515  -6.845499163581095  -3.58657807414386  5.675575838753885  23.829698340836188  22.99837004277438  0.000000
0.15469999999999998  0.000000  0.000000  0.000000  -35.06978677368608  2.3538932392612355  1.8198812999679295  54.380431007607434  7.2299213454007685  -6.832140162079428  -3.7288048997901706  6.030973874346424  23.939019791234784  23.10235242509789  0.000000
0.1666  0.000000  0.000000  0.000000  -35.06890236041396  2.3656825088885456  1.8212885343130112  54.358539984433435  7.126858675950038  -6.82407315676998  -3.8382550548133456  6.428209854720074  23.960194919270233  23.21451033449481  0.000000
0.1785  0.000000  0.000000  0.000000  -35.065145310534106  2.3742434771972367  1.8252637598336614  54.338044344699135  7.025098625961399  -6.820517698829474  -3.9377367298801085  6.867320332653636  23.917806638066224  23.333658434223892  0.000000
0.19039999999999999  0.000000  0.000000  0.000000  -35.057952106806  2.380462642021242  1.8323771819564632  54.319379271067255  6.9262040222804435  -6.8216014987323925  -4.0383114359457295  7.347513020325606  23.823954128679482  23.458610097784202  0.000000
0.20229999999999998  0.000000  0.000000  0.000000  -35.05010748019793  2.3850824942663666  1.8434297360655594  54.30227761506305  6.8314359631011  -6.82678450159522  -4.152653426511748  7.868313813776399  23.694040778980227  23.588022677364624  0.000000
0.21419999999999997  0.000000  0.000000  0.000000  -35.04086434617107  2.3885148825561338  1.8588695554537167  54.28755080924038  6.742077402094855  -6.835834975378805  -4.286396418351137  8.428717157376905  23.53565408829701  23.72044267848032  0.000000
0.2261  0.000000  0.000000  0.000000  -35.03285544452464  2.3912994326735895  1.879333291460215  54.27524514128245  6.659148951400029  -6.848174804924946  -4.442915365733906  9.027792608453659  23.355400811151924  23.854522046518035  0.000000
0.238  0.000000  0.000000  0.000000  -35.025209035893496  2.393690226467872  1.9051126853657658  54.266150235730144  6.583692405008298  -6.863474032717059  -4.621002539765845  9.664117664378226  23.154688290760987  23.988970387134493  0.000000
0.24989999999999998  0.000000  0.000000  0.000000  -35.02038338713369  2.396212252150913  1.9366630466320933  54.260321587282654  6.516487346633842  -6.88111719192492  -4.818029088751396  10.336257349341222  22.934482642064886  24.122611381688944  0.000000
0.2618  0.000000  0.000000  0.000000  -35.01741062083396  2.399047520359753  1.9741657200090226  54.25841288548572  6.458316333350061  -6.90070983813466  -5.029933527125758  11.042401808472373  22.693860363690064  24.25456660874552  0.000000
0.2737  0.000000  0.000000  0.000000  -35.01856025604324  2.402491913666277  2.0179559430740626  54.26056789277653  6.40969917612985  -6.921809994144271  -5.252055402653843  11.780727941520738  22.43181157442761  24.383739331394164  0.000000
0.28559999999999997  0.000000  0.000000  0.000000  -35.02272883501294  2.4065405728948606  2.068043378720879  54.26747233451519  6.3710417376202235  -6.944000392527172  -5.479207913062702  12.549073902257197  22.146210586737755  24.50873357128285  0.000000
0.2975  0.000000  0.000000  0.000000  -35.03219421106384  2.411277963769345  2.1245206990522956  54.27929644889762  6.342648936348319  -6.966902527870496  -5.706443972992305  13.345405839816882  21.835681114072216  24.62855147020409  0.000000
0.30939999999999995  0.000000  0.000000  0.000000  -35.04579335844994  2.416628072045956  2.187273881477762  54.29656084890081  6.3247441701994935  -6.990215406040445  -5.928725853784986  14.16728462995201  21.498428591010132  24.742246786425458  0.000000
0.3213  0.000000  0.000000  0.000000  -35.065551902355274  2.422967971996539  2.256381796354563  54.31913426458411  6.317252595765779  -7.013536021938284  -6.1401959438536755  15.0122499198678  21.132427028068822  24.848788915889596  0.000000
0.3332  0.000000  0.000000  0.000000  -35.09000973412516  2.4304130406538236  2.3316379002611423  54.34709745345609  6.320180926325543  -7.036552290342053  -6.335683223768626  15.877536614175547  20.73595817458584  24.947421438135184  0.000000
0.34509999999999996  0.000000  0.000000  0.000000  -35.12093214559221  2.4392303603334935  2.412935236988311  54.380199538172654  6.333468757091727  -7.059021432253925  -6.5106980383895685  16.760550645984605  20.308136937207475  25.03752924685498  0.000000
0.357  0.000000  0.000000  0.000000  -35.156763631786774  2.4494472304389254  2.499968876313746  54.418553373686834  6.356991339820572  -7.080614939923936  -6.66207375060087  17.65856373410147  19.84911533415691  25.11849456106837  0.000000
0.36889999999999995  0.000000  0.000000  0.000000  -35.19923099667644  2.4613731951948625  2.5926059910101076  54.4619289912193  6.39046985759603  -7.10099315386689  -6.786913717717849  18.56902353301595  19.359403729753918  25.189726498775908  0.000000
0.38079999999999997  0.000000  0.000000  0.000000  -35.24677678660353  2.475097270972525  2.6905387733360064  54.51036339591689  6.433554378111884  -7.119761678950807  -6.8831963054917695  19.489276373796606  18.840037703715158  25.250689070171596  0.000000
0.3927  0.000000  0.000000  0.000000  -35.301223840882706  2.490976204811522  2.793645926661779  54.56362721493041  6.485783730798556  -7.136525314875313  -6.948957134670352  20.41691962501373  18.29212228072136  25.300850271202936  0.000000
0.40459999999999996  0.000000  0.000000  0.000000  -35.36107079766708  2.509131528118877  2.9015423624701238  54.62172547842994  6.546729247038165  -7.150799977916089  -6.983080837657109  21.349527782813265  17.717318379365306  25.339748534048628  0.000000
0.4165  0.000000  0.000000  0.000000  -35.42801165454952  2.5299488194835598  3.0139412436815887  54.68436893931283  6.616054784757051  -7.1621188472071635  -6.984687412972861  22.284960372883333  17.11775251069979  25.367059457917023  0.000000
0.42839999999999995  0.000000  0.000000  0.000000  -35.50022112544498  2.5536663293066435  3.130495728299503  54.751441842929495  6.693330947366962  -7.170120335044098  -6.953344105346415  23.22101312875175  16.495824855106584  25.3825511611758  0.000000
0.44029999999999997  0.000000  0.000000  0.000000  -35.57920100485179  2.5808118099865314  3.251342470196347  54.822417395243356  6.77797298527446  -7.1745331167095925  -6.88831699932214  24.15570780738773  15.853513463925214  25.386015341433396  0.000000
0.4522  0.000000  0.000000  0.000000  -35.663099073543  2.611635196529042  3.3762945640085813  54.89690993753115  6.869425991545826  -7.175090094323271  -6.789424995717459  25.08709102707035  15.192890639912115  25.37738754539873  0.000000
0.46409999999999996  0.000000  0.000000  0.000000  -35.75342358636707  2.6468424969515674  3.5053720065785496  54.97436925846143  6.966900536816061  -7.171396374563802  -6.656984998896119  26.01345824807223  14.516371903776811  25.35667569745288  0.000000
0.476  0.000000  0.000000  0.000000  -35.84836083741547  2.6870199900558607  3.6382082913455327  55.05468222585157  7.069683073436608  -7.162917071630258  -6.492168452303737  26.932955346466887  13.826947309704911  25.32384571755984  0.000000
0.48789999999999994  0.000000  0.000000  0.000000  -35.94931784452727  2.7327655671196176  3.77439582646272  55.13740420848086  7.177567245185383  -7.149029168679973  -6.296605523557929  27.844016831202953  13.127959028018797  25.278956181754722  0.000000
0.49979999999999997  0.000000  0.000000  0.000000  -36.0544458190654  2.7839259658887823  3.9126725859252347  55.222144458428986  7.291261944032658  -7.129005017630146  -6.072096017676323  28.745082142019175  12.422776256269604  25.222154077409673  0.000000
0.5116999999999999  0.000000  0.000000  0.000000  -36.165443361289746  2.8405237485608046  4.05223194855759  55.30836433397368  7.411060649451647  -7.102473809540923  -5.8197467059828245  29.635036776405276  11.713846566024818  25.153531832209286  0.000000
0.5236  0.000000  0.000000  0.000000  -36.28069749996471  2.9023665749698004  4.192639279895707  55.3958997255219  7.536725965558999  -7.0695424274439524  -5.5412954062180475  30.512517594867717  11.004084911571805  25.07339858694906  0.000000
0.5355  0.000000  0.000000  0.000000  -36.40199780143735  2.96937925398847  4.333597516518357  55.48453859400934  7.668288328885743  -7.0302593181583415  -5.239242947688605  31.37651151280241  10.297184916618452  24.98220299165268  0.000000
0.5474  0.000000  0.000000  0.000000  -36.527719681352586  3.0410488430480007  4.4745205384891875  55.574266619168476  7.806048938969746  -6.9846710243130214  -4.916679947285952  32.22594203567191  9.596897174640521  24.880505991022197  0.000000
